<?xml version="1.0" standalone="no"?>
<!DOCTYPE svg PUBLIC "-//W3C//DTD SVG 20010904//EN"
 "http://www.w3.org/TR/2001/REC-SVG-20010904/DTD/svg10.dtd">
<svg version="1.0" xmlns="http://www.w3.org/2000/svg"
 width="512.000000pt" height="512.000000pt" viewBox="0 0 512.000000 512.000000"
 preserveAspectRatio="xMidYMid meet">
<g transform="translate(0.000000,512.000000) scale(0.100000,-0.100000)"
fill="#000000" stroke="none">
<path d="M3120 4584 c-151 -44 -475 -153 -932 -315 -692 -245 -877 -317 -909
-355 -23 -28 -52 -415 -89 -1194 -36 -771 -41 -910 -47 -1420 l-6 -505 86 -91
c47 -50 111 -108 143 -130 l56 -39 127 0 c139 0 164 6 281 65 153 78 1123 474
1663 680 216 82 281 116 313 165 43 66 55 247 144 2190 14 314 15 591 1 641
-17 63 -34 72 -152 83 -168 15 -266 52 -404 151 -142 102 -161 107 -275 74z
m180 -83 c0 -13 -52 -42 -140 -79 -149 -63 -1676 -624 -1710 -629 -28 -4 -40
0 -58 20 -45 48 -30 67 88 114 214 86 1739 581 1793 582 15 1 27 -3 27 -8z
m114 -86 c3 -9 -4 -21 -17 -30 -134 -87 -1410 -582 -1690 -655 -85 -23 -106
-23 -92 0 13 21 240 113 1130 456 319 124 589 228 600 233 31 15 62 13 69 -4z
m243 -131 c6 -19 -147 -77 -692 -260 -522 -176 -875 -284 -927 -284 -30 0 -11
20 41 42 126 54 940 354 1147 422 244 81 420 113 431 80z m183 -539 c-45
-1055 -115 -2212 -136 -2246 -8 -13 -66 -37 -534 -224 -632 -252 -1142 -445
-1176 -445 -17 0 -19 71 -4 216 11 116 29 427 70 1229 33 633 64 1126 80 1275
5 52 10 100 10 107 0 7 50 28 113 47 701 217 1365 417 1507 454 l75 20 3 -87
c2 -47 -1 -203 -8 -346z m-2350 -82 l105 -48 115 1 c72 0 148 6 202 18 48 10
92 15 97 11 27 -16 -11 -756 -40 -792 -18 -21 -165 -61 -262 -72 -57 -7 -115
-7 -164 -1 -133 17 -195 70 -209 178 -8 68 1 710 11 735 10 25 29 21 145 -30z
m63 -1000 c81 -17 167 -14 322 13 53 9 98 14 100 12 10 -10 -50 -966 -66
-1061 -21 -122 -31 -127 -254 -127 -235 0 -298 15 -349 84 -17 22 -22 46 -25
124 -3 91 12 628 26 918 l6 131 84 -39 c46 -21 116 -46 156 -55z m-160 -1265
l92 -33 208 1 207 1 0 -312 0 -313 -112 -31 c-208 -57 -298 -62 -393 -21 -61
26 -123 85 -135 128 -13 47 -13 191 0 400 11 173 16 212 31 212 5 0 51 -15
102 -32z"/>
<path d="M3080 3090 c-234 -29 -463 -138 -634 -300 -68 -64 -150 -175 -141
-190 11 -18 30 -11 61 21 16 17 70 61 119 99 195 146 384 229 630 276 95 19
394 26 448 11 20 -6 27 -4 27 7 0 16 -90 47 -191 66 -77 15 -243 20 -319 10z"/>
<path d="M2212 2687 c-13 -35 -15 -155 -3 -196 11 -40 32 -46 91 -27 29 9 70
28 91 42 38 23 77 70 67 80 -3 2 -38 -11 -79 -31 -40 -19 -81 -35 -90 -35 -30
0 -41 28 -47 115 -2 47 -8 85 -11 85 -4 0 -12 -15 -19 -33z"/>
<path d="M2844 2626 c-52 -13 -137 -57 -150 -77 -3 -6 6 -24 22 -40 l29 -28
44 29 c57 39 105 43 129 12 22 -29 13 -40 -54 -62 -87 -29 -144 -82 -144 -134
0 -48 32 -109 65 -124 73 -34 183 9 208 81 3 8 11 3 24 -12 16 -19 25 -22 51
-16 17 3 34 11 37 15 7 11 -72 277 -91 307 -32 51 -92 68 -170 49z m116 -257
c0 -44 -24 -74 -66 -85 -17 -4 -31 -1 -41 9 -19 19 -20 64 -2 83 17 16 91 43
102 37 4 -2 7 -22 7 -44z"/>
<path d="M3552 2435 c-48 -15 -85 -36 -124 -73 -42 -39 -24 -43 50 -11 72 31
111 36 130 17 8 -8 12 -45 12 -100 0 -48 4 -88 8 -88 18 0 35 59 40 137 7 127
-16 150 -116 118z"/>
<path d="M3494 2283 c-287 -225 -567 -323 -916 -323 -122 0 -262 12 -310 26
-11 3 -18 0 -18 -8 0 -16 84 -51 190 -79 51 -13 122 -22 220 -25 124 -5 160
-3 250 16 222 45 424 152 569 301 67 68 89 105 74 120 -7 7 -25 -2 -59 -28z"/>
</g>
</svg>
