<?xml version="1.0" standalone="no"?>
<!DOCTYPE svg PUBLIC "-//W3C//DTD SVG 20010904//EN"
 "http://www.w3.org/TR/2001/REC-SVG-20010904/DTD/svg10.dtd">
<svg version="1.0" xmlns="http://www.w3.org/2000/svg"
 width="48.000000pt" height="48.000000pt" viewBox="0 0 48.000000 48.000000"
 preserveAspectRatio="xMidYMid meet">
<g transform="translate(0.000000,48.000000) scale(0.100000,-0.100000)"
fill="#000000" stroke="none">
<path d="M205 404 c-38 -13 -74 -29 -80 -34 -14 -15 -25 -291 -12 -307 15 -20
35 -16 143 28 l101 40 7 46 c3 25 6 88 6 139 0 86 -2 94 -19 94 -11 0 -23 5
-26 10 -9 15 -43 11 -120 -16z m113 -1 c16 -15 15 -16 -13 -9 -22 5 -26 4 -15
-4 13 -8 13 -10 0 -10 -9 0 -22 6 -30 13 -12 10 -12 9 -2 -4 11 -14 8 -17 -19
-23 -17 -3 -43 -3 -57 0 -22 4 -24 3 -12 -6 12 -9 11 -10 -7 -5 -14 4 -23 2
-23 -4 0 -6 12 -11 26 -11 23 0 25 -3 22 -37 -3 -33 -8 -38 -31 -41 -26 -3
-27 -2 -27 50 l0 54 78 26 c94 32 90 32 110 11z m38 -90 c-3 -42 -6 -98 -6
-124 l0 -48 -77 -30 -78 -30 -3 27 c-1 15 1 74 5 131 l8 105 70 22 c39 12 74
22 79 23 5 1 6 -32 2 -76z m-176 -119 c0 -54 0 -55 -27 -52 -26 3 -28 7 -31
56 l-3 52 30 0 c31 0 31 0 31 -56z m-2 -94 c0 -20 -5 -31 -19 -35 -27 -9 -39
2 -39 36 0 25 4 29 28 29 25 0 29 -4 30 -30z"/>
<path d="M205 380 c-13 -6 -15 -9 -5 -9 8 0 22 4 30 9 18 12 2 12 -25 0z"/>
<path d="M233 266 c-15 -13 -25 -28 -21 -32 4 -4 16 4 26 16 12 15 35 26 63
30 l44 7 -42 2 c-31 1 -49 -5 -70 -23z"/>
<path d="M259 248 c-11 -36 -2 -52 20 -38 15 9 8 40 -9 40 -5 0 -10 -1 -11 -2z"/>
<path d="M311 209 c-14 -12 -39 -19 -65 -19 -34 -1 -38 -2 -22 -12 22 -13 87
4 106 27 19 23 8 26 -19 4z"/>
</g>
</svg>
